<?xml version="1.0" encoding="utf-8"?>
<!-- Generator: Adobe Illustrator 16.0.0, SVG Export Plug-In . SVG Version: 6.00 Build 0)  -->
<!DOCTYPE svg PUBLIC "-//W3C//DTD SVG 1.1//EN" "http://www.w3.org/Graphics/SVG/1.1/DTD/svg11.dtd">
<svg version="1.1" id="Capa_1" xmlns="http://www.w3.org/2000/svg" xmlns:xlink="http://www.w3.org/1999/xlink" x="0px" y="0px"
	 width="50px" height="50px" viewBox="0 0 50 50" enable-background="new 0 0 50 50" xml:space="preserve">
<g>
	<path fill="#FFFFFF" d="M38.666,14.279h-3.059c-2.402,0-2.871,1.143-2.871,2.816v3.695h5.672v5.783h-5.672v14.85h-5.971v-14.85
		h-5.002v-5.783h5.002v-4.27c0-4.947,3.016-7.645,7.439-7.645c2.121,0,3.932,0.158,4.461,0.229V14.279z"/>
	<path fill="#3D5A95" d="M40.744,4.027H9.264c-2.436,0-4.41,1.973-4.41,4.41v31.477c0,2.436,1.975,4.412,4.41,4.412h31.48
		c2.432,0,4.402-1.977,4.402-4.412V8.438C45.146,6,43.176,4.027,40.744,4.027z M38.666,14.279h-3.059
		c-2.402,0-2.871,1.143-2.871,2.816v3.695h5.672v5.783h-5.672v14.85h-5.971v-14.85h-5.002v-5.783h5.002v-4.27
		c0-4.947,3.016-7.645,7.439-7.645c2.121,0,3.932,0.158,4.461,0.229V14.279z"/>
</g>
</svg>
