<?xml version="1.0" encoding="utf-8"?>
<!-- Generator: Adobe Illustrator 16.0.0, SVG Export Plug-In . SVG Version: 6.00 Build 0)  -->
<!DOCTYPE svg PUBLIC "-//W3C//DTD SVG 1.1//EN" "http://www.w3.org/Graphics/SVG/1.1/DTD/svg11.dtd">
<svg version="1.1" id="Capa_1" xmlns="http://www.w3.org/2000/svg" xmlns:xlink="http://www.w3.org/1999/xlink" x="0px" y="0px"
	 width="200px" height="200px" viewBox="0 0 200 200" enable-background="new 0 0 200 200" xml:space="preserve">
<g>
	<defs>
		<rect id="SVGID_7_" x="-960" y="-761" width="1679" height="540"/>
	</defs>
	<clipPath id="SVGID_2_">
		<use xlink:href="#SVGID_7_"  overflow="visible"/>
	</clipPath>
	<g clip-path="url(#SVGID_2_)">
		<defs>
			<path id="SVGID_9_" d="M-844.882-1244.828c-46.52-189.239-114.76-363.739-198.13-519.005c9.508,4.625,19.253,9.782,29.572,15.323
				c557.953,307.126,1115.24,615.377,1672.848,923.173c250.227,138.458,500.425,277.12,755.239,417.797
				c-18.687,19.213-24.359,30.586-32.483,32.673C554.529-166.354-272.996,41.881-1101.11,248.113
				C-809.114-52.308-694.101-634.511-844.882-1244.828z"/>
		</defs>
		<clipPath id="SVGID_4_">
			<use xlink:href="#SVGID_9_"  overflow="visible"/>
		</clipPath>
		<g clip-path="url(#SVGID_4_)">
			<path fill="#0071BA" d="M-848.611,1294.013C-1015.692,616.539-708.579-66.545-138.75-405.854
				c361.945,199.508,796.535,269.037,1229.207,162.247c135.984-33.491,264.013-82.966,382.772-145.021
				c329.274,205.729,582.3,534.703,682.729,941.506c204.674,829.739-302.113,1668.232-1131.782,1872.844
				C194.34,2630.428-644.118,2123.677-848.611,1294.013z"/>
		</g>
	</g>
</g>
<g>
	<path fill="#F9AE3B" d="M173.281,148.12l-8.781-23.966c2.785-7.728,4.188-15.825,4.188-24.153c0-39.475-32.1-71.579-71.577-71.579
		c-39.479,0-71.577,32.104-71.577,71.579c0,39.481,32.098,71.577,71.577,71.577c14.277,0,28.315-4.355,40.12-12.326l17.609,6.883
		c2.259,0.898,4.473,1.326,6.59,1.326c4.402,0,8.305-1.95,10.677-5.371C173.662,159.896,175.852,155.16,173.281,148.12
		L173.281,148.12z M161.431,157.729c-0.857,0-1.88-0.208-3.028-0.688l-22.599-8.831c-10.614,8.497-24.035,13.643-38.692,13.643
		c-34.147-0.026-61.822-27.701-61.822-61.852c0-34.145,27.674-61.819,61.822-61.819c34.145,0,61.845,27.674,61.845,61.819
		c0,8.548-1.737,16.662-4.855,24.057l10.042,27.414C165.548,155.326,164.359,157.729,161.431,157.729L161.431,157.729z
		 M161.431,157.729"/>
	<path fill="#F9AE3B" d="M132.757,100.001c0,4.379-3.545,7.924-7.924,7.924c-4.378,0-7.924-3.545-7.924-7.924
		c0-4.383,3.545-7.924,7.924-7.924C129.212,92.077,132.757,95.618,132.757,100.001L132.757,100.001z M132.757,100.001"/>
	<path fill="#F9AE3B" d="M103.512,100.001c0,4.379-3.545,7.924-7.924,7.924s-7.924-3.545-7.924-7.924
		c0-4.383,3.545-7.924,7.924-7.924S103.512,95.618,103.512,100.001L103.512,100.001z M103.512,100.001"/>
	<path fill="#F9AE3B" d="M74.267,100.001c0,4.379-3.545,7.924-7.924,7.924c-4.376,0-7.924-3.545-7.924-7.924
		c0-4.383,3.547-7.924,7.924-7.924C70.722,92.077,74.267,95.618,74.267,100.001L74.267,100.001z M74.267,100.001"/>
</g>
</svg>
