<?xml version="1.0" encoding="utf-8"?>
<!-- Generator: Adobe Illustrator 16.0.0, SVG Export Plug-In . SVG Version: 6.00 Build 0)  -->
<!DOCTYPE svg PUBLIC "-//W3C//DTD SVG 1.1//EN" "http://www.w3.org/Graphics/SVG/1.1/DTD/svg11.dtd">
<svg version="1.1" id="Capa_1" xmlns="http://www.w3.org/2000/svg" xmlns:xlink="http://www.w3.org/1999/xlink" x="0px" y="0px"
	 width="200px" height="200px" viewBox="0 0 200 200" enable-background="new 0 0 200 200" xml:space="preserve">
<g>
	<defs>
		<rect id="SVGID_7_" x="-468" y="-761" width="1679" height="540"/>
	</defs>
	<clipPath id="SVGID_2_">
		<use xlink:href="#SVGID_7_"  overflow="visible"/>
	</clipPath>
	<g clip-path="url(#SVGID_2_)">
		<defs>
			<path id="SVGID_9_" d="M-352.882-1244.828c-46.52-189.239-114.76-363.739-198.13-519.005c9.508,4.625,19.253,9.782,29.572,15.323
				C36.513-1441.384,593.8-1133.133,1151.408-825.337c250.227,138.458,500.425,277.12,755.239,417.797
				c-18.687,19.213-24.359,30.586-32.483,32.673C1046.529-166.354,219.004,41.881-609.11,248.113
				C-317.114-52.308-202.101-634.511-352.882-1244.828z"/>
		</defs>
		<clipPath id="SVGID_4_">
			<use xlink:href="#SVGID_9_"  overflow="visible"/>
		</clipPath>
		<g clip-path="url(#SVGID_4_)">
			<path fill="#0071BA" d="M-356.611,1294.013C-523.692,616.539-216.579-66.545,353.25-405.854
				c361.945,199.508,796.535,269.037,1229.207,162.247c135.984-33.491,264.013-82.966,382.772-145.021
				c329.274,205.729,582.3,534.703,682.729,941.506c204.674,829.739-302.113,1668.232-1131.782,1872.844
				C686.34,2630.428-152.118,2123.677-356.611,1294.013z"/>
		</g>
	</g>
</g>
<g>
	<path fill-rule="evenodd" clip-rule="evenodd" fill="#8AC43F" d="M65.78,188.487c0-1.835,0-3.671,0-5.693c1.868,0,3.628,0,5.518,0
		c0-3.836,0-7.49,0-11.359c-0.654-0.029-1.315-0.089-1.977-0.091c-8.231-0.045-16.47,0.087-24.695-0.169
		c-6.749-0.209-12.303-5.804-12.997-12.557c-0.071-0.688-0.103-1.38-0.104-2.073c-0.005-22.456-0.015-44.912,0.004-67.372
		c0.004-6.064,2.568-10.766,8.125-13.313c2.214-1.015,4.875-1.438,7.338-1.453c18.079-0.12,36.16-0.064,54.242-0.064
		c0.682,0,1.366,0,2.304,0c-1.9-9.298,0.468-17.143,7.586-23.264c4.454-3.83,9.773-5.595,15.649-5.265
		c7.127,0.401,12.925,3.491,17.221,9.21c4.303,5.731,5.295,12.208,3.842,19.319c1.975,0,3.747-0.011,5.518,0
		c9.157,0.064,15.1,6.013,15.122,15.175c0.021,7.544,0.004,15.085,0.004,22.629c0,0.624,0,1.244,0,1.97c2.898,0,5.631,0,8.533,0
		c0-1.761,0-3.518,0-5.475c3.934,0,7.706,0,11.476,0c0,1.842,0,3.684,0,5.531c-1.83,0-3.657,0-5.595,0c0,8.685,0,17.156,0,25.922
		c1.947,0,3.772,0,5.595,0c0,1.844,0,3.688,0,5.531c-3.772,0-7.546,0-11.489,0c0-1.615,0-3.011,0-4.317
		c-2.855,0.658-5.561,1.287-8.441,1.951c-0.013,0.173-0.072,0.617-0.075,1.064c-0.023,4.545,0.12,9.102-0.094,13.636
		c-0.339,7.138-5.998,12.987-13.04,13.215c-8.219,0.27-16.458,0.124-24.683,0.169c-0.66,0.002-1.319,0.066-1.964,0.101
		c0,3.868,0,7.518,0,11.352c1.892,0,3.653,0,5.518,0c0,2.02,0,3.855,0,5.69C111.407,188.487,88.592,188.487,65.78,188.487z
		 M37.169,148.369c42.021,0,83.751,0,125.552,0c0-1.878,0-3.633,0-5.552c-0.727,0-1.351,0.002-1.972,0
		c-8.239-0.008-16.475,0.004-24.712-0.051c-1.539-0.014-3.095-0.21-4.61-0.497c-4.239-0.797-8.464-1.677-12.691-2.542
		c-4.787-0.979-9.764-1.453-14.312-3.107c-5.208-1.894-10.104-4.71-15-7.373c-3.062-1.663-4.332-5.536-3.38-8.865
		c1.477-5.183,6.903-7.492,11.884-5.018c1.928,0.958,3.789,2.043,5.89,3.184c-0.362-1.82-0.863-3.312-0.921-4.82
		c-0.132-3.685,2.584-7.055,6.082-7.813c3.765-0.82,7.407,0.928,8.986,4.462c1.216,2.731,2.24,5.543,3.402,8.3
		c0.199,0.468,0.637,1.175,0.987,1.19c2.556,0.1,5.118,0.053,7.676,0.053c-1.949-1.474-4-2.487-5.933-3.697
		c-3.646-2.278-5.028-6.608-3.502-10.557c1.75-4.53,6.479-6.697,11.343-5.052c5.336,1.804,10.604,3.826,15.951,5.595
		c4.943,1.632,9.726,3.521,13.846,6.797c0.246,0.195,0.569,0.293,0.855,0.435c0.113-0.21,0.205-0.302,0.205-0.396
		c0.011-8.179,0.159-16.363-0.04-24.535c-0.124-5.178-3.792-8.42-8.999-8.512c-2.246-0.041-4.499,0.066-6.738-0.039
		c-1.199-0.057-1.847,0.413-2.483,1.366c-8.946,13.356-28.651,13.429-37.595,0.128c-0.725-1.082-1.459-1.499-2.778-1.497
		c-19.009,0.047-38.02,0.03-57.028,0.035c-6.574,0-9.96,3.417-9.963,10.047c-0.004,18.781,0,37.559,0,56.337
		C37.169,147,37.169,147.622,37.169,148.369z M37.351,154.353c-0.983,6.804,2.804,11.305,9.439,11.309
		c35.477,0.005,70.955,0.005,106.434-0.004c6.625,0,10.45-4.569,9.413-11.305C120.921,154.353,79.185,154.353,37.351,154.353z
		 M177.073,119.999c-4.706,0-9.189,0.047-13.67-0.034c-0.908-0.018-1.981-0.287-2.688-0.821c-5.103-3.868-10.756-6.569-16.878-8.373
		c-1.983-0.581-3.909-1.353-5.864-2.034c-2.603-0.911-5.189-1.876-7.815-2.714c-2.509-0.799-4.935,0.889-4.344,3.128
		c0.275,1.061,1.284,2.199,2.269,2.757c4.398,2.5,8.909,4.797,13.375,7.176c0.511,0.272,0.998,0.59,1.712,1.013
		c-3.508,1.754-6.678,3.383-9.892,4.911c-0.795,0.38-1.744,0.606-2.625,0.61c-8.116,0.047-16.235,0.052-24.353-0.004
		c-0.923-0.006-1.919-0.308-2.75-0.73c-2.763-1.415-5.445-2.988-8.202-4.415c-1.782-0.924-3.61-0.082-3.84,1.705
		c-0.186,1.415,0.65,2.227,1.827,2.808c3.871,1.901,7.715,3.851,11.606,5.71c1.073,0.513,2.24,0.893,3.404,1.141
		c4.836,1.026,9.706,1.894,14.527,2.979c7.27,1.637,14.566,2.56,22.052,2.304c7.362-0.25,14.741-0.176,22.105,0.004
		c3.21,0.077,6.14-0.68,9.04-1.799c0.417-0.158,0.957-0.723,0.959-1.107C177.095,129.559,177.073,124.905,177.073,119.999z
		 M125.751,51.52c-9.345-0.04-17.096,7.617-17.147,16.94c-0.053,9.403,7.676,17.248,17.034,17.286
		c9.214,0.043,17.103-7.757,17.19-16.998C142.916,59.401,135.141,51.559,125.751,51.52z M77.234,182.615c15.269,0,30.375,0,45.478,0
		c0-3.803,0-7.46,0-11.132c-15.222,0-30.331,0-45.478,0C77.234,175.244,77.234,178.862,77.234,182.615z M115.677,119.973
		c-0.973-2.449-1.832-4.667-2.736-6.868c-0.568-1.389-1.66-1.894-3.051-1.396c-1.363,0.489-1.472,1.686-1.148,2.857
		c0.429,1.539,0.971,3.051,1.562,4.537c0.15,0.37,0.667,0.804,1.043,0.832C112.694,120.032,114.053,119.973,115.677,119.973z"/>
	<path fill-rule="evenodd" clip-rule="evenodd" fill="#8AC43F" d="M88.592,11.513c0.706,0.19,1.402,0.404,2.112,0.575
		c10.569,2.531,17.921,11.703,17.878,22.313c-0.042,10.589-7.319,19.656-17.812,22.194c-12.16,2.943-24.954-5.261-27.388-17.567
		C60.85,26.222,69.347,13.78,81.938,11.849c0.382-0.06,0.748-0.223,1.124-0.336C84.906,11.513,86.749,11.513,88.592,11.513z
		 M85.806,17.259c-9.284-0.056-17.118,7.642-17.221,16.918c-0.102,9.298,7.681,17.197,17.051,17.308
		c9.224,0.107,17.098-7.672,17.173-16.966C102.887,25.089,95.228,17.314,85.806,17.259z"/>
	<path fill-rule="evenodd" clip-rule="evenodd" fill="#8AC43F" d="M188.487,34.326c-1.834,0-3.667,0-5.614,0
		c0-1.859,0-3.614,0-5.531c1.896,0,3.754,0,5.614,0C188.487,30.639,188.487,32.483,188.487,34.326z"/>
	<path fill-rule="evenodd" clip-rule="evenodd" fill="#8AC43F" d="M11.513,54.375c1.832,0,3.661,0,5.607,0c0,1.842,0,3.594,0,5.531
		c-1.889,0-3.749,0-5.607,0C11.513,58.059,11.513,56.217,11.513,54.375z"/>
	<path fill-rule="evenodd" clip-rule="evenodd" fill="#8AC43F" d="M182.313,19.627c1.278,1.256,2.571,2.526,3.913,3.843
		c-1.306,1.261-2.577,2.491-3.765,3.637c-1.239-1.263-2.533-2.579-3.873-3.945C179.682,22.123,180.965,20.904,182.313,19.627z"/>
	<path fill-rule="evenodd" clip-rule="evenodd" fill="#8AC43F" d="M17.404,68.902c-1.025-1.026-2.273-2.27-3.641-3.637
		c1.417-1.18,2.804-2.338,4.187-3.492c0.894,0.944,2.137,2.257,3.46,3.654C20.259,66.424,18.898,67.607,17.404,68.902z"/>
	<path fill-rule="evenodd" clip-rule="evenodd" fill="#8AC43F" d="M30.149,48.842c1.082-1.088,2.334-2.344,3.685-3.702
		c1.209,1.4,2.394,2.772,3.542,4.097c-1.011,0.992-2.302,2.257-3.546,3.479C32.748,51.576,31.504,50.268,30.149,48.842z"/>
	<path fill-rule="evenodd" clip-rule="evenodd" fill="#8AC43F" d="M162.473,39.401c1.109-1.133,2.375-2.43,3.642-3.725
		c1.304,1.351,2.564,2.659,3.782,3.919c-1.211,1.188-2.47,2.419-3.663,3.59C165.055,41.998,163.76,40.694,162.473,39.401z"/>
	<path fill-rule="evenodd" clip-rule="evenodd" fill="#8AC43F" d="M171.453,22.786c0-1.851,0-3.608,0-5.454c1.874,0,3.637,0,5.514,0
		c0,1.795,0,3.556,0,5.454C175.208,22.786,173.404,22.786,171.453,22.786z"/>
	<path fill-rule="evenodd" clip-rule="evenodd" fill="#8AC43F" d="M165.57,34.257c-1.923,0-3.687,0-5.55,0c0-1.833,0-3.583,0-5.466
		c1.865,0,3.661,0,5.55,0C165.57,30.611,165.57,32.364,165.57,34.257z"/>
	<path fill-rule="evenodd" clip-rule="evenodd" fill="#8AC43F" d="M28.506,71.321c-1.8,0-3.558,0-5.452,0c0-1.782,0-3.575,0-5.466
		c1.782,0,3.539,0,5.452,0C28.506,67.637,28.506,69.424,28.506,71.321z"/>
	<path fill-rule="evenodd" clip-rule="evenodd" fill="#8AC43F" d="M40.005,54.473c0,1.851,0,3.552,0,5.394c-1.868,0-3.663,0-5.565,0
		c0-1.766,0-3.518,0-5.394C36.245,54.473,38.043,54.473,40.005,54.473z"/>
	<path fill-rule="evenodd" clip-rule="evenodd" fill="#8AC43F" d="M23.035,43.008c1.847,0,3.605,0,5.499,0c0,1.836,0,3.627,0,5.503
		c-1.864,0-3.625,0-5.499,0C23.035,46.711,23.035,44.961,23.035,43.008z"/>
	<path fill-rule="evenodd" clip-rule="evenodd" fill="#8AC43F" d="M171.436,45.656c0-1.852,0-3.604,0-5.463c1.851,0,3.612,0,5.505,0
		c0,1.778,0,3.569,0,5.463C175.165,45.656,173.41,45.656,171.436,45.656z"/>
	<path fill-rule="evenodd" clip-rule="evenodd" fill="#8AC43F" d="M33.833,61.358c1.332,1.317,2.629,2.599,3.907,3.864
		c-1.321,1.34-2.605,2.646-3.838,3.894c-1.342-1.299-2.656-2.571-3.921-3.796C31.291,63.974,32.56,62.666,33.833,61.358z"/>
	<path fill-rule="evenodd" clip-rule="evenodd" fill="#8AC43F" d="M166.145,27.337c-1.323-1.32-2.616-2.607-3.908-3.894
		c1.346-1.312,2.656-2.586,3.942-3.838c1.268,1.249,2.571,2.533,3.816,3.761C168.703,24.7,167.434,26.008,166.145,27.337z"/>
	<path fill-rule="evenodd" clip-rule="evenodd" fill="#8AC43F" d="M182.209,35.885c1.34,1.248,2.626,2.454,3.957,3.7
		c-1.306,1.263-2.571,2.489-3.782,3.66c-1.203-1.235-2.464-2.53-3.783-3.881C179.708,38.296,181.008,37.043,182.209,35.885z"/>
	<path fill-rule="evenodd" clip-rule="evenodd" fill="#8AC43F" d="M14.066,48.951c1.113-1.145,2.342-2.41,3.625-3.731
		c1.306,1.333,2.571,2.625,3.837,3.919c-1.261,1.227-2.528,2.456-3.814,3.706C16.585,51.64,15.353,50.323,14.066,48.951z"/>
	<path fill-rule="evenodd" clip-rule="evenodd" fill="#8AC43F" d="M65.729,82.875c12.529-0.039,22.864,10.3,22.853,22.861
		c-0.011,12.489-10.166,22.683-22.731,22.815c-12.491,0.132-22.881-10.203-22.909-22.78C42.916,93.162,53.113,82.913,65.729,82.875z
		 M82.833,105.681c-0.021-9.401-7.804-17.13-17.203-17.087c-9.249,0.046-17.058,7.907-17.027,17.142
		c0.029,9.344,7.88,17.118,17.256,17.084C75.138,122.785,82.854,114.994,82.833,105.681z"/>
	<path fill-rule="evenodd" clip-rule="evenodd" fill="#8AC43F" d="M128.847,65.65c0.524,0.312,1.041,0.632,1.571,0.936
		c2.312,1.329,3.667,3.291,3.787,5.979c0.124,2.757-0.983,5.064-3.409,6.312c-1.668,0.861-2.759,1.688-2.151,3.829
		c-2.022,0-3.817,0-5.73,0c-0.032-0.521-0.132-1.029-0.074-1.517c0.111-0.966-0.287-1.364-1.197-1.727
		c-3.246-1.295-4.783-4.141-4.319-7.971c1.461,0,2.966,0,4.469,0c-3.321-1.982-5.107-4.628-4.492-8.452
		c0.487-3.024,2.479-4.821,5.47-5.729c0-0.879,0-1.787,0-2.83c1.924,0,3.734,0,5.798,0c-0.752,2.371,0.951,3.057,2.601,4.082
		c2.509,1.56,3.336,4.09,2.975,7.12c-1.816,0-3.58,0-5.345,0.005c-0.665-2.825-0.665-2.825-3.733-2.761
		c-0.229,0.004-0.521-0.082-0.673,0.03c-0.538,0.397-1.027,0.861-1.536,1.299c0.517,0.5,0.994,1.355,1.564,1.423
		C125.873,65.857,127.371,65.684,128.847,65.65z M122.904,71.454c-0.152,2.474,0.201,2.874,2.541,2.889
		c0.515,0,1.109,0.15,1.517-0.06c0.582-0.299,1.021-0.867,1.524-1.32c-0.507-0.505-0.953-1.347-1.526-1.44
		C125.64,71.309,124.257,71.454,122.904,71.454z"/>
	<path fill-rule="evenodd" clip-rule="evenodd" fill="#8AC43F" d="M94.033,31.462c-1.507,0-3.047,0-4.584,0
		c-0.03,0.087-0.06,0.175-0.09,0.26c0.49,0.278,0.99,0.545,1.47,0.836c4.521,2.716,4.644,9.443,0.054,12.029
		c-1.667,0.94-2.845,1.722-2.22,3.892c-2.018,0-3.819,0-5.657,0c-0.062-0.314-0.167-0.541-0.136-0.75
		c0.212-1.436-0.286-2.192-1.735-2.799c-2.897-1.22-4.24-4.165-3.804-7.697c1.511,0,3.046,0,4.578,0
		c0.03-0.094,0.062-0.188,0.092-0.282c-0.438-0.261-0.88-0.521-1.318-0.782c-4.567-2.731-4.74-9.328-0.181-12.04
		c1.573-0.937,3.002-1.605,2.263-3.892c2.03,0,3.83,0,5.625,0c0.062,0.117,0.173,0.22,0.159,0.306
		c-0.274,1.748,0.399,2.661,2.1,3.427C93.441,25.23,94.655,28.282,94.033,31.462z M82.895,37.176
		c-0.032,2.569,0.27,2.89,2.597,2.907c0.459,0.004,1.006,0.15,1.363-0.047c0.628-0.341,1.144-0.897,1.703-1.363
		c-0.589-0.5-1.124-1.303-1.785-1.43C85.562,37.01,84.273,37.176,82.895,37.176z M88.441,31.509
		c0.278-2.466-0.026-2.823-2.349-2.846c-0.513-0.004-1.111-0.159-1.522,0.051c-0.613,0.317-1.089,0.889-1.626,1.351
		c0.532,0.483,1.011,1.28,1.609,1.381C85.82,31.658,87.15,31.509,88.441,31.509z"/>
	<path fill-rule="evenodd" clip-rule="evenodd" fill="#8AC43F" d="M68.571,117.083c0,0.936,0,1.791,0,2.787c-1.878,0-3.676,0-5.56,0
		c-0.054-0.958-0.105-1.864-0.156-2.749c-4.454-2.052-5.903-4.202-5.591-8.398c1.795,0,3.605,0,5.422,0
		c0.628,2.564,1.977,3.38,4.657,2.598c0.496-0.14,1.137-0.944,1.111-1.41c-0.028-0.458-0.763-1.128-1.287-1.242
		c-0.996-0.211-2.064-0.036-3.096-0.118c-3.654-0.282-6.261-2.684-6.809-6.214c-0.498-3.209,1.381-6.266,4.678-7.603
		c0.265-0.107,0.53-0.218,0.9-0.372c0.049-0.876,0.101-1.774,0.16-2.813c1.832,0,3.624,0,5.545,0c0,0.958,0,1.864,0,2.71
		c4.529,2.071,6.031,4.302,5.671,8.428c-1.791,0-3.598,0-5.413,0c-0.575-2.573-1.925-3.391-4.644-2.603
		c-0.494,0.144-1.12,0.949-1.099,1.419c0.023,0.454,0.754,1.135,1.271,1.239c1.056,0.214,2.182,0.042,3.268,0.146
		c3.594,0.337,6.086,2.706,6.599,6.195c0.483,3.289-1.332,6.249-4.661,7.601C69.273,116.793,69.009,116.904,68.571,117.083z"/>
</g>
</svg>
