<?xml version="1.0" encoding="utf-8"?>
<!-- Generator: Adobe Illustrator 16.0.0, SVG Export Plug-In . SVG Version: 6.00 Build 0)  -->
<!DOCTYPE svg PUBLIC "-//W3C//DTD SVG 1.1//EN" "http://www.w3.org/Graphics/SVG/1.1/DTD/svg11.dtd">
<svg version="1.1" id="Capa_1" xmlns="http://www.w3.org/2000/svg" xmlns:xlink="http://www.w3.org/1999/xlink" x="0px" y="0px"
	 width="200px" height="200px" viewBox="0 0 200 200" enable-background="new 0 0 200 200" xml:space="preserve">
<g>
	<defs>
		<rect id="SVGID_7_" x="-19.718" y="-761" width="1679" height="540"/>
	</defs>
	<clipPath id="SVGID_2_">
		<use xlink:href="#SVGID_7_"  overflow="visible"/>
	</clipPath>
	<g clip-path="url(#SVGID_2_)">
		<defs>
			<path id="SVGID_9_" d="M95.4-1244.828c-46.52-189.239-114.76-363.739-198.13-519.005c9.508,4.625,19.253,9.782,29.572,15.323
				c557.953,307.126,1115.24,615.377,1672.848,923.173c250.227,138.458,500.425,277.12,755.239,417.797
				c-18.687,19.213-24.359,30.586-32.483,32.673C1494.811-166.354,667.286,41.881-160.828,248.113
				C131.167-52.308,246.181-634.511,95.4-1244.828z"/>
		</defs>
		<clipPath id="SVGID_4_">
			<use xlink:href="#SVGID_9_"  overflow="visible"/>
		</clipPath>
		<g clip-path="url(#SVGID_4_)">
			<path fill="#0071BA" d="M91.671,1294.013C-75.411,616.539,231.703-66.545,801.532-405.854
				c361.945,199.508,796.535,269.037,1229.207,162.247c135.984-33.491,264.013-82.966,382.772-145.021
				c329.274,205.729,582.3,534.703,682.729,941.506c204.674,829.739-302.113,1668.232-1131.782,1872.844
				C1134.621,2630.428,296.164,2123.677,91.671,1294.013z"/>
		</g>
	</g>
</g>
<g>
	<path fill="#0071BA" d="M149.511,91.21c-3.095-2.794-4.8-6.502-4.802-10.445c0-3.942,1.705-7.655,4.798-10.448
		c6.064-5.466,6.202-9.572,5.249-12.055c-0.906-2.355-3.507-5.163-10.777-5.163c-0.506,0-1.036,0.015-1.57,0.042
		c-4.285,0.218-8.247-1.308-11.033-4.235c-2.627-2.765-3.962-6.509-3.76-10.541c0.259-4.962-0.651-8.573-2.703-10.735
		c-1.278-1.343-2.93-2.056-4.776-2.056c-3.029,0-6.288,1.907-9.683,5.671c-2.797,3.099-6.51,4.804-10.453,4.804
		c-3.943,0-7.656-1.705-10.452-4.804c-3.398-3.764-6.655-5.671-9.683-5.671c-1.847,0-3.497,0.709-4.774,2.056
		c-2.052,2.16-2.961,5.771-2.708,10.732c0.203,4.037-1.133,7.783-3.758,10.544c-2.612,2.744-6.241,4.257-10.222,4.257h-0.002
		c-0.268,0-0.542-0.007-0.809-0.021c-0.537-0.028-1.066-0.042-1.573-0.042c-7.266,0-9.869,2.808-10.775,5.163
		c-0.953,2.483-0.816,6.588,5.243,12.052c3.096,2.795,4.801,6.509,4.799,10.451c0,3.942-1.706,7.651-4.797,10.445
		c-6.063,5.469-6.198,9.578-5.245,12.062c0.906,2.353,3.509,5.159,10.767,5.159c0.511,0,1.043-0.016,1.581-0.042
		c3.588-0.184,6.953,0.861,9.589,2.931l-19.199,45.25c-0.423,0.992-0.295,2.136,0.335,3.016c0.63,0.878,1.673,1.365,2.748,1.284
		l17.447-1.291l8.971,13.468c0.577,0.866,1.551,1.379,2.581,1.379c0.105,0,0.21-0.003,0.314-0.017
		c1.148-0.116,2.131-0.857,2.563-1.923l16.953-42.073l18.703,42.17c0.459,1.036,1.445,1.737,2.573,1.831
		c0.088,0.009,0.175,0.012,0.263,0.012c1.031,0,2-0.513,2.58-1.379l8.978-13.468l17.438,1.291c1.079,0.081,2.131-0.411,2.762-1.299
		c0.627-0.892,0.743-2.043,0.308-3.039l-20.06-45.677c2.323-1.615,5.137-2.486,8.152-2.486c0.27,0,0.542,0.005,0.812,0.021
		c0.542,0.027,1.073,0.042,1.582,0.042h0.002c7.261,0,9.86-2.809,10.766-5.162C155.708,100.786,155.571,96.679,149.511,91.21
		L149.511,91.21z M79.386,164.712l-6.716-10.08c-0.618-0.932-1.696-1.457-2.808-1.372l-14.183,1.052l15.775-37.185
		c0.711,1.866,1.038,3.909,0.929,6.035c-0.253,4.962,0.656,8.571,2.708,10.732c1.277,1.344,2.928,2.053,4.774,2.053h0.001
		c3.029,0,6.286-1.909,9.682-5.671c1.511-1.673,3.286-2.935,5.223-3.749L79.386,164.712z M145.747,154.304l-14.101-1.043
		c-1.114-0.081-2.191,0.44-2.811,1.372l-6.854,10.28l-17.085-38.518c2.067,0.804,3.961,2.116,5.555,3.881
		c3.396,3.765,6.654,5.674,9.685,5.674c1.846,0,3.498-0.712,4.776-2.058c2.052-2.159,2.962-5.77,2.703-10.723
		c-0.126-2.521,0.349-4.928,1.362-7.052L145.747,154.304z M148.963,101.047c-0.089,0.232-1.258,1.179-4.977,1.179
		c-0.399,0-0.827-0.01-1.263-0.031c-0.376-0.021-0.757-0.03-1.133-0.03c-5.69,0-10.917,2.197-14.709,6.182
		c-3.811,4.008-5.75,9.379-5.462,15.138c0.186,3.553-0.425,5.525-1.007,6.14c-0.109,0.112-0.151,0.123-0.277,0.123
		c-0.184,0-1.9-0.101-5.082-3.626c-3.988-4.417-9.333-6.851-15.053-6.851s-11.068,2.434-15.058,6.851
		c-3.177,3.525-4.894,3.626-5.077,3.626c-0.127,0-0.172-0.011-0.276-0.123c-0.583-0.612-1.194-2.587-1.01-6.145
		c0.289-5.751-1.652-11.125-5.462-15.13c-4.042-4.25-9.696-6.466-15.844-6.154c-0.435,0.021-0.859,0.031-1.261,0.031
		c-3.719,0-4.888-0.946-4.978-1.179c-0.109-0.293,0.182-2.14,3.609-5.236c4.416-3.985,6.846-9.326,6.846-15.046
		c0.001-5.719-2.428-11.066-6.846-15.056c-3.427-3.093-3.718-4.934-3.609-5.225c0.09-0.236,1.261-1.182,4.985-1.182
		c0.402,0,0.823,0.01,1.257,0.033c0.374,0.019,0.752,0.029,1.124,0.029h0.002c5.695,0,10.922-2.197,14.715-6.185
		c3.808-4.004,5.749-9.379,5.46-15.134c-0.184-3.559,0.427-5.535,1.01-6.144c0.104-0.113,0.149-0.124,0.276-0.124
		c0.183,0,1.899,0.1,5.077,3.624c3.99,4.417,9.337,6.849,15.058,6.849s11.065-2.431,15.053-6.849
		c3.182-3.524,4.898-3.624,5.082-3.624c0.126,0,0.171,0.01,0.28,0.124c0.579,0.612,1.19,2.587,1.004,6.148
		c-0.289,5.75,1.651,11.125,5.462,15.129c3.793,3.988,9.02,6.185,14.716,6.185c0.372,0,0.75-0.008,1.128-0.029
		c0.429-0.022,0.853-0.033,1.252-0.033c3.727,0,4.898,0.946,4.985,1.182c0.114,0.291-0.182,2.132-3.609,5.227
		c-4.416,3.987-6.847,9.334-6.845,15.053c0,5.721,2.429,11.061,6.845,15.049C148.781,98.908,149.074,100.754,148.963,101.047
		L148.963,101.047z M148.963,101.047"/>
	<path fill="#0071BA" d="M100.18,53.064c-16.354,0-29.662,13.305-29.662,29.657c0,16.355,13.308,29.662,29.662,29.662
		c16.354,0,29.657-13.307,29.657-29.662C129.837,66.37,116.534,53.064,100.18,53.064L100.18,53.064z M100.18,106.18
		c-12.935,0-23.458-10.525-23.458-23.458c0-12.933,10.523-23.455,23.458-23.455c12.935,0,23.456,10.522,23.456,23.455
		C123.636,95.655,113.114,106.18,100.18,106.18L100.18,106.18z M100.18,106.18"/>
	<path fill="#0071BA" d="M101.389,66.894c-0.408-0.045-4.116-0.371-8.144,1.327c-3.874,1.635-8.703,5.43-9.701,14.243
		c-0.192,1.7,1.031,3.237,2.731,3.429c0.12,0.014,0.238,0.021,0.355,0.021c1.556,0,2.898-1.171,3.076-2.751
		c1.209-10.673,10.038-10.192,11.057-10.101c1.699,0.167,3.212-1.066,3.389-2.765C104.33,68.595,103.095,67.071,101.389,66.894
		L101.389,66.894z M101.389,66.894"/>
</g>
</svg>
