<?xml version="1.0" encoding="utf-8"?>
<!-- Generator: Adobe Illustrator 16.0.0, SVG Export Plug-In . SVG Version: 6.00 Build 0)  -->
<!DOCTYPE svg PUBLIC "-//W3C//DTD SVG 1.1//EN" "http://www.w3.org/Graphics/SVG/1.1/DTD/svg11.dtd">
<svg version="1.1" id="Capa_1" xmlns="http://www.w3.org/2000/svg" xmlns:xlink="http://www.w3.org/1999/xlink" x="0px" y="0px"
	 width="311.243px" height="100px" viewBox="0 0 311.243 100" enable-background="new 0 0 311.243 100" xml:space="preserve">
<symbol  id="Nuevo_símbolo" viewBox="-112.621 -34.349 222.634 68.697">
	<g>
		<path fill="none" stroke="#000C49" stroke-width="2" stroke-miterlimit="10" d="M-53.758-8.166V22.34
			c0,0-1.466,11.01-12.446,10.982c0,0-6.002,0.605-9.835-4.029"/>
		<polygon fill="none" stroke="#000C49" stroke-width="2" stroke-miterlimit="10" points="-62.421,8.051 -62.335,-8.17 
			-76.337,-16.352 -90.427,-8.318 -90.511,7.902 -76.51,16.084 		"/>
		<path fill="none" stroke="#000C49" stroke-width="2" stroke-miterlimit="10" d="M-70.897-23.289l26.014,15.936
			c0,0,8.62,6.996,2.862,16.35c0,0-2.615,5.432-8.57,6.281"/>
		<path fill="none" stroke="#000C49" stroke-width="2" stroke-miterlimit="10" d="M-94.401-14.277l25.316-17.023
			c0,0,9.951-4.926,16.058,4.201c0,0,3.854,4.643,2.144,10.406"/>
		<path fill="none" stroke="#000C49" stroke-width="2" stroke-miterlimit="10" d="M-98.64,8.135l0.07-30.506
			c0,0,1.491-11.004,12.473-10.953c0,0,6.002-0.594,9.826,4.051"/>
		<path fill="none" stroke="#000C49" stroke-width="2" stroke-miterlimit="10" d="M-80.25,24.686l-26.328-15.408
			c0,0-8.758-6.824-3.19-16.291c0,0,2.508-5.486,8.445-6.449"/>
		<path fill="none" stroke="#000C49" stroke-width="2" stroke-miterlimit="10" d="M-58.023,14.842l-26.153,15.705
			c0,0-10.189,4.408-15.822-5.016c0,0-3.611-4.832-1.609-10.506"/>
	</g>
	<g>
		<g>
			<path fill="#000C49" stroke="#000C49" stroke-miterlimit="10" d="M-26.928,22.871h20.964v-0.898h-20.111V6.89h18.72V5.991h-18.72
				V-9.9h20.111v-0.897h-20.964V22.871z"/>
			<path fill="#000C49" stroke="#000C49" stroke-miterlimit="10" d="M-0.484-10.798L11.771,6.665L0.459,22.871h1.122L12.311,7.473
				l10.774,15.398h1.122L12.894,6.665l12.255-17.463h-1.167L12.311,5.856L0.684-10.798H-0.484z"/>
			<path fill="#000C49" stroke="#000C49" stroke-miterlimit="10" d="M52.986,12.905c0-5.478-4.489-9.922-9.966-9.922H32.516v-13.781
				h-0.853v33.669h11.357C48.497,22.871,52.986,18.382,52.986,12.905z M32.516,22.018V3.837h10.505
				c4.938,0.045,9.023,4.04,9.023,9.068c0,5.027-4.085,9.112-9.113,9.112H32.516z"/>
			<path fill="#000C49" stroke="#000C49" stroke-miterlimit="10" d="M59.725,22.871h20.964v-0.898H60.577V6.89h18.72V5.991h-18.72
				V-9.9h20.111v-0.897H59.725V22.871z"/>
			<path fill="#000C49" stroke="#000C49" stroke-miterlimit="10" d="M98.649,2.983h-9.607v-13.781H88.19v33.669h11.357
				c5.477,0,9.966-4.489,9.966-9.966c0-5.433-4.399-9.832-9.831-9.922l7.946-13.781h-1.033L98.649,2.983z M99.547,22.018H89.042
				V3.837h10.505c4.938,0.045,9.023,4.04,9.023,9.068C108.57,17.888,104.53,21.973,99.547,22.018z"/>
		</g>
		<g>
			<path fill="#000C49" stroke="#000C49" stroke-width="0.75" stroke-miterlimit="10" d="M-19.788-18.646
				c0-1.055-0.653-1.958-1.569-2.347c1.222-0.306,2.125-1.416,2.125-2.722c0-1.555-1.264-2.818-2.819-2.818h-5.401v10.414h5.138
				C-20.927-16.118-19.788-17.257-19.788-18.646z M-22.315-20.895c1.236,0,2.25,1.014,2.25,2.249c0,1.236-1.014,2.25-2.25,2.25
				h-4.86v-4.499H-22.315z M-27.175-21.173v-5.082h5.124c1.402,0,2.541,1.139,2.541,2.541s-1.139,2.541-2.541,2.541H-27.175z"/>
			<path fill="#000C49" stroke="#000C49" stroke-width="0.75" stroke-miterlimit="10" d="M-17.231-16.118h6.484v-0.277h-6.221
				v-4.666h5.791v-0.277h-5.791v-4.916h6.221v-0.277h-6.484V-16.118z"/>
			<path fill="#000C49" stroke="#000C49" stroke-width="0.75" stroke-miterlimit="10" d="M-3.815-18.798
				c0,1.333-1.069,2.402-2.402,2.402s-2.402-1.069-2.402-2.402S-7.55-21.2-6.217-21.2c1.472,0,2.666-1.194,2.666-2.666
				s-1.194-2.666-2.666-2.666c-1.472,0-2.666,1.208-2.666,2.68h0.264c0-1.333,1.069-2.416,2.402-2.416s2.402,1.069,2.402,2.402
				s-1.069,2.416-2.402,2.416c-1.472,0-2.666,1.194-2.666,2.666s1.194,2.666,2.666,2.666c1.472,0,2.666-1.208,2.666-2.68H-3.815z"/>
			<path fill="#000C49" stroke="#000C49" stroke-width="0.75" stroke-miterlimit="10" d="M6.476-16.118v-0.264H2.491v-10.15H2.227
				v10.15h-3.971v0.264H6.476z"/>
			<path fill="#000C49" stroke="#000C49" stroke-width="0.75" stroke-miterlimit="10" d="M15.672-16.118h6.484v-0.277h-6.221v-4.666
				h5.791v-0.277h-5.791v-4.916h6.221v-0.277h-6.484V-16.118z"/>
			<path fill="#000C49" stroke="#000C49" stroke-width="0.75" stroke-miterlimit="10" d="M23.853-26.532l3.791,5.401l-3.499,5.013
				h0.347l3.318-4.763l3.333,4.763h0.347l-3.499-5.013l3.791-5.401h-0.361l-3.61,5.151l-3.596-5.151H23.853z"/>
			<path fill="#000C49" stroke="#000C49" stroke-width="0.75" stroke-miterlimit="10" d="M40.394-19.2
				c0-1.694-1.389-3.069-3.083-3.069h-3.25v-4.263h-0.264v10.414h3.513C39.005-16.118,40.394-17.507,40.394-19.2z M34.062-16.382
				v-5.624h3.25c1.527,0.015,2.791,1.25,2.791,2.806c0,1.555-1.264,2.818-2.819,2.818H34.062z"/>
			<path fill="#000C49" stroke="#000C49" stroke-width="0.75" stroke-miterlimit="10" d="M42.479-16.118h6.484v-0.277h-6.221v-4.666
				h5.791v-0.277h-5.791v-4.916h6.221v-0.277h-6.484V-16.118z"/>
			<path fill="#000C49" stroke="#000C49" stroke-width="0.75" stroke-miterlimit="10" d="M54.52-22.27h-2.972v-4.263h-0.264v10.414
				h3.513c1.694,0,3.083-1.389,3.083-3.082c0-1.681-1.361-3.041-3.041-3.069l2.458-4.263h-0.32L54.52-22.27z M54.797-16.382h-3.25
				v-5.624h3.25c1.527,0.015,2.791,1.25,2.791,2.806C57.588-17.659,56.338-16.396,54.797-16.382z"/>
			<path fill="#000C49" stroke="#000C49" stroke-width="0.75" stroke-miterlimit="10" d="M60.423-26.532v10.414h0.264v-10.414
				H60.423z"/>
			<path fill="#000C49" stroke="#000C49" stroke-width="0.75" stroke-miterlimit="10" d="M64.006-16.118h6.484v-0.277H64.27v-4.666
				h5.791v-0.277H64.27v-4.916h6.221v-0.277h-6.484V-16.118z"/>
			<path fill="#000C49" stroke="#000C49" stroke-width="0.75" stroke-miterlimit="10" d="M73.09-16.396v-10.137h-0.278v10.414h0.458
				l8.04-10.137v10.137h0.278v-10.414h-0.431L73.09-16.396z"/>
			<path fill="#000C49" stroke="#000C49" stroke-width="0.75" stroke-miterlimit="10" d="M92.338-25.005
				c-0.944-0.944-2.25-1.527-3.694-1.527c-2.874,0-5.207,2.333-5.207,5.207s2.333,5.207,5.207,5.207c1.431,0,2.722-0.569,3.666-1.5
				l-0.194-0.18c-0.889,0.874-2.111,1.416-3.472,1.416c-2.735,0-4.943-2.208-4.943-4.943s2.208-4.943,4.943-4.943
				c1.361,0,2.611,0.569,3.5,1.472L92.338-25.005z"/>
			<path fill="#000C49" stroke="#000C49" stroke-width="0.75" stroke-miterlimit="10" d="M94.799-16.118h6.484v-0.277h-6.221v-4.666
				h5.791v-0.277h-5.791v-4.916h6.221v-0.277h-6.484V-16.118z"/>
			<path fill="#000C49" stroke="#000C49" stroke-width="0.75" stroke-miterlimit="10" d="M108.214-18.798
				c0,1.333-1.069,2.402-2.402,2.402s-2.402-1.069-2.402-2.402s1.069-2.402,2.402-2.402c1.472,0,2.666-1.194,2.666-2.666
				s-1.194-2.666-2.666-2.666c-1.472,0-2.666,1.208-2.666,2.68h0.264c0-1.333,1.069-2.416,2.402-2.416s2.402,1.069,2.402,2.402
				s-1.069,2.416-2.402,2.416c-1.472,0-2.666,1.194-2.666,2.666s1.194,2.666,2.666,2.666c1.472,0,2.666-1.208,2.666-2.68H108.214z"
				/>
		</g>
	</g>
</symbol>
<g>
	<defs>
		<rect id="SVGID_7_" x="-1092.757" y="-1240" width="1679" height="540"/>
	</defs>
	<clipPath id="SVGID_2_">
		<use xlink:href="#SVGID_7_"  overflow="visible"/>
	</clipPath>
	<g clip-path="url(#SVGID_2_)">
		<defs>
			<path id="SVGID_9_" d="M-977.639-1723.828c-46.52-189.239-114.76-363.739-198.13-519.005c9.508,4.625,19.253,9.782,29.572,15.323
				c557.953,307.126,1115.24,615.377,1672.848,923.173c250.227,138.458,500.425,277.12,755.239,417.797
				c-18.687,19.213-24.359,30.586-32.483,32.673c-827.635,208.514-1655.16,416.748-2483.274,622.98
				C-941.871-531.308-826.857-1113.511-977.639-1723.828z"/>
		</defs>
		<clipPath id="SVGID_4_">
			<use xlink:href="#SVGID_9_"  overflow="visible"/>
		</clipPath>
		<g clip-path="url(#SVGID_4_)">
			<path fill="#0071BA" d="M-981.368,815.013C-1148.449,137.539-841.335-545.545-271.506-884.854
				C90.438-685.347,525.028-615.817,957.701-722.608c135.984-33.491,264.013-82.966,382.772-145.021
				c329.274,205.729,582.3,534.703,682.729,941.506c204.674,829.739-302.113,1668.232-1131.782,1872.844
				C61.583,2151.428-776.875,1644.677-981.368,815.013z"/>
		</g>
	</g>
</g>
<use xlink:href="#Nuevo_símbolo"  width="222.634" height="68.697" id="XMLID_2_" x="-112.621" y="-34.349" transform="matrix(1.3411 0 0 -1.3411 154.2656 48.9995)" overflow="visible"/>
</svg>
